<svg xmlns="http://www.w3.org/2000/svg" xmlns:svg="http://www.w3.org/2000/svg" id="svg8" width="108" height="108" version="1.1" viewBox="0 0 108 108"><defs id="defs2"><filter style="color-interpolation-filters:sRGB" id="filter856" width="2" height="2" x="-.5" y="-.5"><feFlood id="feFlood845" flood-color="#000" flood-opacity=".3" result="flood"/><feComposite id="feComposite848" in="flood" in2="SourceGraphic" operator="in" result="composite1"/><feGaussianBlur id="feGaussianBlur850" in="composite1" result="blur" stdDeviation="1"/><feOffset id="feOffset852" dx="0" dy="1" result="offset"/><feComposite id="feComposite854" in="SourceGraphic" in2="offset" operator="over" result="composite2"/></filter></defs><metadata id="metadata5"/><g id="layer"><circle style="opacity:1;fill:#f5f5f5;fill-opacity:1;fill-rule:nonzero;stroke:none;stroke-width:1.54617035;stroke-linecap:round;stroke-linejoin:miter;stroke-miterlimit:4;stroke-dasharray:none;stroke-opacity:1;filter:url(#filter856)" id="circle" cx="54" cy="54" r="36"/><path style="opacity:1;fill:#000;fill-opacity:.2;fill-rule:nonzero;stroke:none;stroke-width:1.54617035;stroke-linecap:round;stroke-linejoin:miter;stroke-miterlimit:4;stroke-dasharray:none;stroke-opacity:1" id="circle-edge-bottom" d="M 89.990234,53.707031 A 36,36 0 0 1 54,89.5 36,36 0 0 1 18.009766,53.792969 36,36 0 0 0 18,54 36,36 0 0 0 54,90 36,36 0 0 0 90,54 36,36 0 0 0 89.9902,53.707031 Z"/><path style="opacity:1;fill:#fff;fill-opacity:.2;fill-rule:nonzero;stroke:none;stroke-width:1.54617035;stroke-linecap:round;stroke-linejoin:miter;stroke-miterlimit:4;stroke-dasharray:none;stroke-opacity:1" id="circle-edge-top" d="M 54,18 A 36,36 0 0 0 18,54 36,36 0 0 0 18.0098,54.292969 36,36 0 0 1 54,18.5 36,36 0 0 1 89.990234,54.207031 36,36 0 0 0 90,54 36,36 0 0 0 54,18 Z"/><path style="fill:#1a73e8;fill-opacity:1;stroke:none;stroke-width:2.09999967" id="icon" d="M 20,6 H 12 L 10,4 H 4 C 2.9,4 2.01,4.9 2.01,6 L 2,18 c 0,1.1 0.9,2 2,2 h 16 c 1.1,0 2,-0.9 2,-2 V 8 C 22,6.9 21.1,6 20,6 Z m -5,3 c 1.1,0 2,0.9 2,2 0,1.1 -0.9,2 -2,2 -1.1,0 -2,-0.9 -2,-2 0,-1.1 0.9,-2 2,-2 z m 4,8 h -8 v -1 c 0,-1.33 2.67,-2 4,-2 1.33,0 4,0.67 4,2 z" transform="matrix(1.8,0,0,1.8,32.4,32.4)"/></g></svg>