<svg xmlns="http://www.w3.org/2000/svg" xmlns:svg="http://www.w3.org/2000/svg" xmlns:xlink="http://www.w3.org/1999/xlink" id="svg8" width="108" height="108" version="1.1" viewBox="0 0 108 108"><defs id="defs2"><linearGradient id="linearGradient874"><stop id="stop870" offset="0" style="stop-color:#fff;stop-opacity:.1"/><stop style="stop-color:#fff;stop-opacity:.05" id="stop878" offset=".333"/><stop id="stop872" offset="1" style="stop-color:#fff;stop-opacity:0"/></linearGradient><radialGradient id="radialGradient876" cx="18" cy="18" r="72" fx="18" fy="18" gradientUnits="userSpaceOnUse" xlink:href="#linearGradient874"/><clipPath id="clipPath843" clipPathUnits="userSpaceOnUse"><circle id="circle845" cx="54" cy="54" r="36" style="opacity:1;fill:#fff;fill-opacity:1;fill-rule:nonzero;stroke:none;stroke-width:1.54617035;stroke-linecap:round;stroke-linejoin:miter;stroke-miterlimit:4;stroke-dasharray:none;stroke-opacity:1"/></clipPath><filter style="color-interpolation-filters:sRGB" id="filter919" width="1.114" height="1.184" x="-.057" y="-.092"><feFlood id="feFlood909" flood-color="#000" flood-opacity=".2" result="flood"/><feComposite id="feComposite911" in="flood" in2="SourceGraphic" operator="in" result="composite1"/><feGaussianBlur id="feGaussianBlur913" in="composite1" result="blur" stdDeviation="1"/><feOffset id="feOffset915" dx="0" dy="0" result="offset" stdDeviation="1"/><feComposite id="feComposite917" dy="1" in="SourceGraphic" in2="offset" operator="over" result="composite2"/></filter><clipPath id="clipPath849" clipPathUnits="userSpaceOnUse"><path style="fill:#fff;fill-opacity:1;stroke:none;stroke-width:2.09999967" id="path851" d="m 49.8,36 h -12.6 c -2.31,0 -4.2,1.89 -4.2,4.2 v 27.6 c 0,2.31 1.89,4.2 4.2,4.2 h 33.6 c 2.31,0 4.2,-1.89 4.2,-4.2 v -23.4 c 0,-2.31 -1.89,-4.2 -4.2,-4.2 H 54 z"/></clipPath><filter id="filter849" width="1.229" height="1.322" x="-.114" y="-.133" style="color-interpolation-filters:sRGB"><feFlood id="feFlood839" flood-color="#000" flood-opacity=".2" result="flood"/><feComposite id="feComposite841" in="flood" in2="SourceGraphic" operator="in" result="composite1"/><feGaussianBlur id="feGaussianBlur843" in="composite1" result="blur" stdDeviation="2"/><feOffset id="feOffset845" dx="0" dy="2" result="offset"/><feComposite id="feComposite847" in="SourceGraphic" in2="offset" operator="over" result="composite2"/></filter><filter style="color-interpolation-filters:sRGB" id="filter856" width="1.067" height="1.081" x="-.033" y="-.033"><feFlood id="feFlood845" flood-color="#000" flood-opacity=".3" result="flood"/><feComposite id="feComposite848" in="flood" in2="SourceGraphic" operator="in" result="composite1"/><feGaussianBlur id="feGaussianBlur850" in="composite1" result="blur" stdDeviation="1"/><feOffset id="feOffset852" dx="0" dy="1" result="offset"/><feComposite id="feComposite854" in="SourceGraphic" in2="offset" operator="over" result="composite2"/></filter></defs><metadata id="metadata5"/><g id="layer"><circle style="opacity:1;fill:#1a73e8;fill-opacity:1;fill-rule:nonzero;stroke:none;stroke-width:1.54617035;stroke-linecap:round;stroke-linejoin:miter;stroke-miterlimit:4;stroke-dasharray:none;stroke-opacity:1;filter:url(#filter856)" id="circle" cx="54" cy="54" r="36"/><path style="opacity:1;fill:#000;fill-opacity:.2;fill-rule:nonzero;stroke:none;stroke-width:1.54617035;stroke-linecap:round;stroke-linejoin:miter;stroke-miterlimit:4;stroke-dasharray:none;stroke-opacity:1" id="circle-edge-bottom" d="M 89.990234,53.707031 A 36,36 0 0 1 54,89.5 36,36 0 0 1 18.009766,53.792969 36,36 0 0 0 18,54 36,36 0 0 0 54,90 36,36 0 0 0 90,54 36,36 0 0 0 89.9902,53.707031 Z"/><path style="opacity:1;fill:#fff;fill-opacity:.2;fill-rule:nonzero;stroke:none;stroke-width:1.54617035;stroke-linecap:round;stroke-linejoin:miter;stroke-miterlimit:4;stroke-dasharray:none;stroke-opacity:1" id="circle-edge-top" d="M 54,18 A 36,36 0 0 0 18,54 36,36 0 0 0 18.0098,54.292969 36,36 0 0 1 54,18.5 36,36 0 0 1 89.990234,54.207031 36,36 0 0 0 90,54 36,36 0 0 0 54,18 Z"/><g id="circle-clip-group" clip-path="url(#clipPath843)"><path id="folder-edge-bottom" d="M 33 67.800781 L 33 68.800781 C 33 71.110781 34.889219 73 37.199219 73 L 70.800781 73 C 73.110781 73 75 71.110781 75 68.800781 L 75 67.800781 C 75 70.110781 73.110781 72 70.800781 72 L 37.199219 72 C 34.889219 72 33 70.110781 33 67.800781 z" style="fill:#000;fill-opacity:.2;fill-rule:evenodd;stroke:none;stroke-width:1px;stroke-linecap:butt;stroke-linejoin:miter;stroke-opacity:1"/><path id="folder-background" d="M 49.8,36 H 37.2 c -2.31,0 -4.2,1.89 -4.2,4.2 v 27.6 c 0,2.31 1.89,4.2 4.2,4.2 h 33.6 c 2.31,0 4.2,-1.89 4.2,-4.2 v -23.4 c 0,-2.31 -1.89,-4.2 -4.2,-4.2 H 54 Z" style="fill:#f1f3f4;fill-opacity:1;stroke:none;stroke-width:2.09999967;filter:url(#filter849)"/><path style="fill:#fff;fill-opacity:1;stroke:none;stroke-width:2.09999967;filter:url(#filter919)" id="folder-foreground" d="m 37.2,45.9 c -2.31,0 -4.2,1.89 -4.2,4.2 v 17.7 c 0,2.31 1.89,4.2 4.2,4.2 h 33.6 c 2.31,0 4.2,-1.89 4.2,-4.2 v -17.7 c 0,-2.31 -1.89,-4.2 -4.2,-4.2 z" clip-path="url(#clipPath849)"/><rect style="opacity:1;fill:url(#radialGradient876);fill-opacity:1;fill-rule:nonzero;stroke:none;stroke-width:3.77952766;stroke-linecap:round;stroke-linejoin:miter;stroke-miterlimit:4;stroke-dasharray:none;stroke-opacity:1" id="light" width="108" height="108" x="0" y="0"/></g></g></svg>